<?xml version="1.0" encoding="UTF-8" standalone="no" ?>
<!DOCTYPE svg PUBLIC "-//W3C//DTD SVG 1.1//EN" "http://www.w3.org/Graphics/SVG/1.1/DTD/svg11.dtd">
<svg xmlns="http://www.w3.org/2000/svg" xmlns:xlink="http://www.w3.org/1999/xlink" version="1.1" width="500" height="500" viewBox="0 0 500 500" xml:space="preserve">
<desc>Created with Fabric.js 3.6.3</desc>
<defs>
</defs>
<g transform="matrix(0.8679655571051824 0.13253445089881752 -0.1325344508988176 0.8679655571051823 250.12499852913766 249.8749985291377)"  >
<path style="stroke: none; stroke-width: 0; stroke-dasharray: none; stroke-linecap: round; stroke-dashoffset: 0; stroke-linejoin: round; stroke-miterlimit: 4; fill: rgb(25,52,65); fill-rule: nonzero; opacity: 0.3;"  transform=" translate(-347.214464, -408.15557)" d="m 239.32338 158.15557 c -78.60067 0 -142.108912 63.50635 -142.108912 142.10701 l 0 215.78407 c 0 78.60067 63.508242 142.10892 142.108912 142.10892 l 215.78217 0 c 78.60067 0 142.10891 -63.50825 142.10891 -142.10892 l 0 -215.78407 c 0 -78.60066 -63.50824 -142.10701 -142.10891 -142.10701 l -215.78217 0 z" stroke-linecap="round" />
</g>
<g transform="matrix(0.802233429062577 -1.9649e-16 1.9649e-16 0.8022334290625771 250.12499852913777 249.874998529138)"  >
<path style="stroke: none; stroke-width: 0; stroke-dasharray: none; stroke-linecap: round; stroke-dashoffset: 0; stroke-linejoin: round; stroke-miterlimit: 4; fill: rgb(25,52,65); fill-rule: nonzero; opacity: 1;"  transform=" translate(-347.214464, -408.15557)" d="m 239.32338 158.15557 c -78.60067 0 -142.108912 63.50635 -142.108912 142.10701 l 0 215.78407 c 0 78.60067 63.508242 142.10892 142.108912 142.10892 l 215.78217 0 c 78.60067 0 142.10891 -63.50825 142.10891 -142.10892 l 0 -215.78407 c 0 -78.60066 -63.50824 -142.10701 -142.10891 -142.10701 l -215.78217 0 z" stroke-linecap="round" />
</g>
<g transform="matrix(0.7377472952057111 0 0 0.7377472952057113 250.12499852913749 249.87499852913885)"  >
<g style=""   >
		<g transform="matrix(1 0 0 1 -48.163845802471855 -2.448150755351861)"  >
<path style="stroke: none; stroke-width: 1; stroke-dasharray: none; stroke-linecap: butt; stroke-dashoffset: 0; stroke-linejoin: miter; stroke-miterlimit: 4; fill: rgb(28,154,234); fill-rule: nonzero; opacity: 0.83;"  transform=" translate(-89.68615419752814, -166.40184924464813)" d="M 0 81.9 v 169 c 0 12.1 12.8 19.7 23.5 14.2 l 147.3 -77.6 c 11 -5.8 11.5 -21.3 1 -27.8 L 24.5 68.3 C 13.7 61.7 0 69.4 0 81.9 z" stroke-linecap="round" />
</g>
		<g transform="matrix(1 0 0 1 38.44936919195126 57.31793920344839)"  >
<path style="stroke: none; stroke-width: 1; stroke-dasharray: none; stroke-linecap: butt; stroke-dashoffset: 0; stroke-linejoin: miter; stroke-miterlimit: 4; fill: rgb(28,154,234); fill-rule: nonzero; opacity: 0.83;"  transform=" translate(-176.29936919195126, -226.16793920344838)" d="M 75.9 131.6 v 189.2 c 0 13.5 14.3 22.1 26.3 15.9 l 164.9 -86.9 c 12.3 -6.5 12.9 -23.8 1.1 -31.1 L 103.3 116.3 C 91.3 108.9 75.9 117.5 75.9 131.6 z" stroke-linecap="round" />
</g>
		<g transform="matrix(1 0 0 1 38.44936919195126 -56.26123154371126)"  >
<path style="stroke: none; stroke-width: 1; stroke-dasharray: none; stroke-linecap: butt; stroke-dashoffset: 0; stroke-linejoin: miter; stroke-miterlimit: 4; fill: rgb(32,178,255); fill-rule: nonzero; opacity: 0.83;"  transform=" translate(-176.29936919195126, -112.58876845628873)" d="M 75.9 18 v 189.2 c 0 13.5 14.3 22.1 26.3 15.9 l 164.9 -86.9 c 12.3 -6.5 12.9 -23.8 1.1 -31.1 L 103.3 2.8 C 91.3 -4.7 75.9 3.9 75.9 18 z" stroke-linecap="round" />
</g>
</g>
</g>
</svg>